<?xml version="1.0" encoding="utf-8"?>
<!-- Generator: Adobe Illustrator 18.1.1, SVG Export Plug-In . SVG Version: 6.00 Build 0)  -->
<svg version="1.1" baseProfile="tiny" id="breadboard"
	 xmlns="http://www.w3.org/2000/svg" xmlns:xlink="http://www.w3.org/1999/xlink" x="0px" y="0px" width="101.2px" height="83.2px"
	 viewBox="509.1 853.1 101.2 83.2" xml:space="preserve">
<path id="rect2985_1_" fill="#008000" stroke="#006000" stroke-width="1.0044" d="M509.6,853.6v82.2h56.7v-82.2L509.6,853.6
	L509.6,853.6z"/>
<rect id="rect3960_1_" x="528" y="856.9" fill="#006400" stroke="#006400" stroke-width="1.3084" width="9.5" height="2.8"/>
<rect id="rect3960_2_" x="542.2" y="856.9" fill="#006400" stroke="#006400" stroke-width="1.3084" width="9.5" height="2.8"/>
<rect id="rect3960_3_" x="559.2" y="856.7" fill="#006400" stroke="#006400" stroke-width="1.3084" width="2.8" height="9.5"/>
<rect id="rect3960_4_" x="559.2" y="869.4" fill="#006400" stroke="#006400" stroke-width="1.3084" width="2.8" height="9.5"/>
<rect id="rect3960_5_" x="527.9" y="905.4" fill="#006400" stroke="#006400" stroke-width="1.3084" width="35.4" height="27.8"/>
<rect id="rect3960_7_" x="567.1" y="910.8" fill="#CCCCCC" stroke="#006400" stroke-width="1.3084" width="42.5" height="17"/>
<rect id="rect3960_6_" x="560.2" y="905.4" fill="#CCCCCC" stroke="#006400" stroke-width="1.3084" width="7.1" height="27.8"/>
<rect id="rect3960_8_" x="578.8" y="910.8" fill="#CCCCCC" stroke="#006400" stroke-width="1.3084" width="2.3" height="17"/>
<rect id="rect3960_9_" x="567.3" y="903.4" fill="#CCCCCC" stroke="#006400" stroke-width="1.3084" width="3.5" height="31.8"/>
<rect id="rect3960_10_" x="573.8" y="910.8" fill="#CCCCCC" stroke="#006400" stroke-width="1.3084" width="2.3" height="17"/>
<rect id="rect3960_11_" x="567.3" y="903.4" fill="#CCCCCC" stroke="#006400" stroke-width="1.3084" width="3.5" height="9.7"/>
<rect id="rect3960_12_" x="567.3" y="925.5" fill="#CCCCCC" stroke="#006400" stroke-width="1.3084" width="3.5" height="9.7"/>
<rect id="rect3960_13_" x="592.6" y="910.8" fill="#CCCCCC" stroke="#006400" stroke-width="1.3084" width="17" height="2.3"/>
<rect id="rect3960_14_" x="592.6" y="925.5" fill="#CCCCCC" stroke="#006400" stroke-width="1.3084" width="17" height="2.3"/>
<rect id="rect3960_15_" x="583.8" y="910.8" fill="#CCCCCC" stroke="#006400" stroke-width="1.3084" width="2.3" height="17"/>
<circle fill="#CCCCCC" stroke="#006400" stroke-width="1.3084" cx="537.2" cy="892.8" r="9.1"/>
<rect id="rect3960_16_" x="553.2" y="887.3" fill="#006400" stroke="#006400" stroke-width="1.3084" width="9.5" height="2.8"/>
<rect id="rect3960_17_" x="553.2" y="893.6" fill="#006400" stroke="#006400" stroke-width="1.3084" width="9.5" height="2.8"/>
<g id="g4130">
	<path id="path4136" fill="#006400" stroke="#006400" d="M515.2,858.3c0,0.9-0.7,1.5-1.5,1.5s-1.5-0.7-1.5-1.5
		c0-0.9,0.7-1.5,1.5-1.5S515.2,857.4,515.2,858.3z"/>
	<rect id="connector10" x="513" y="857.7" fill="#9A916C" stroke="#9A916C" stroke-width="0.5385" width="1.2" height="1.2"/>
	<path id="path4140" fill="#006400" stroke="#006400" d="M515.2,865.4c0,0.9-0.7,1.5-1.5,1.5s-1.5-0.7-1.5-1.5
		c0-0.9,0.7-1.5,1.5-1.5S515.2,864.5,515.2,865.4z"/>
	<rect id="connector9" x="513" y="864.7" fill="#9A916C" stroke="#9A916C" stroke-width="0.5385" width="1.2" height="1.2"/>
	<path id="path4144" fill="#006400" stroke="#006400" d="M515.2,872.4c0,0.9-0.7,1.5-1.5,1.5s-1.5-0.7-1.5-1.5
		c0-0.9,0.7-1.5,1.5-1.5S515.2,871.6,515.2,872.4z"/>
	<rect id="connector8" x="513" y="871.8" fill="#9A916C" stroke="#9A916C" stroke-width="0.5385" width="1.2" height="1.2"/>
	<path id="path4148" fill="#006400" stroke="#006400" d="M515.2,879.5c0,0.9-0.7,1.5-1.5,1.5s-1.5-0.7-1.5-1.5
		c0-0.9,0.7-1.5,1.5-1.5S515.2,878.7,515.2,879.5z"/>
	<rect id="connector7" x="513" y="878.9" fill="#9A916C" stroke="#9A916C" stroke-width="0.5385" width="1.2" height="1.2"/>
	<path id="path4156" fill="#006400" stroke="#006400" d="M515.3,894.4c0,0.9-0.7,1.5-1.5,1.5c-0.8,0-1.5-0.7-1.5-1.5
		c0-0.9,0.7-1.5,1.5-1.5C514.7,892.9,515.3,893.5,515.3,894.4z"/>
	<rect id="connector0" x="513.2" y="893.8" fill="#9A916C" stroke="#9A916C" stroke-width="0.5385" width="1.2" height="1.2"/>
	<path id="path4160" fill="#006400" stroke="#006400" d="M515.3,901.5c0,0.9-0.7,1.5-1.5,1.5c-0.8,0-1.5-0.7-1.5-1.5
		c0-0.9,0.7-1.5,1.5-1.5C514.7,900,515.3,900.6,515.3,901.5z"/>
	<rect id="connector1" x="513.2" y="900.9" fill="#9A916C" stroke="#9A916C" stroke-width="0.5385" width="1.2" height="1.2"/>
	<path id="path4168" fill="#006400" stroke="#006400" d="M515.3,915.6c0,0.9-0.7,1.5-1.5,1.5c-0.8,0-1.5-0.7-1.5-1.5
		c0-0.9,0.7-1.5,1.5-1.5C514.6,914.1,515.3,914.8,515.3,915.6z"/>
	<rect id="connector3" x="513.2" y="915" fill="#9A916C" stroke="#9A916C" stroke-width="0.5385" width="1.2" height="1.2"/>
	<path id="path4172" fill="#006400" stroke="#006400" d="M515.3,922.7c0,0.9-0.7,1.5-1.5,1.5c-0.8,0-1.5-0.7-1.5-1.5
		c0-0.9,0.7-1.5,1.5-1.5C514.6,921.2,515.3,921.9,515.3,922.7z"/>
	<rect id="connector4" x="513.2" y="922.1" fill="#9A916C" stroke="#9A916C" stroke-width="0.5385" width="1.2" height="1.2"/>
	<path id="path4176" fill="#006400" stroke="#006400" d="M515.3,929.8c0,0.9-0.7,1.5-1.5,1.5c-0.8,0-1.5-0.7-1.5-1.5
		c0-0.9,0.7-1.5,1.5-1.5C514.6,928.3,515.3,929,515.3,929.8z"/>
	<rect id="connector5" x="513.2" y="929.2" fill="#9A916C" stroke="#9A916C" stroke-width="0.5385" width="1.2" height="1.2"/>
</g>
<g id="g4023" transform="translate(-4.6565699,2.2137791)">
	<rect id="rect2987" x="531.2" y="862.9" stroke="#1A1A1A" stroke-width="0.7319" width="27.8" height="11.6"/>
	<rect id="rect2991" x="531" y="860.2" fill="#666666" stroke="#4D4D4D" stroke-width="0.3763" width="1.1" height="2.8"/>
	<rect id="rect2993" x="534.7" y="860.2" fill="#666666" stroke="#4D4D4D" stroke-width="0.3763" width="1.1" height="2.8"/>
	<rect id="rect2995" x="538.2" y="860.2" fill="#666666" stroke="#4D4D4D" stroke-width="0.3763" width="1.1" height="2.8"/>
	<rect id="rect2997" x="541.9" y="860.3" fill="#666666" stroke="#4D4D4D" stroke-width="0.3763" width="1.1" height="2.8"/>
	<rect id="rect2999" x="546.1" y="860.2" fill="#666666" stroke="#4D4D4D" stroke-width="0.3763" width="1.1" height="2.8"/>
	<rect id="rect3001" x="550" y="860.2" fill="#666666" stroke="#4D4D4D" stroke-width="0.3763" width="1.1" height="2.8"/>
	<rect id="rect3003" x="554" y="860.2" fill="#666666" stroke="#4D4D4D" stroke-width="0.3763" width="1.1" height="2.8"/>
	<rect id="rect3005" x="558.2" y="860.2" fill="#666666" stroke="#4D4D4D" stroke-width="0.3763" width="1.1" height="2.8"/>
	<rect id="rect3007" x="531" y="874.3" fill="#666666" stroke="#4D4D4D" stroke-width="0.3763" width="1.1" height="2.8"/>
	<rect id="rect3009" x="534.7" y="874.3" fill="#666666" stroke="#4D4D4D" stroke-width="0.3763" width="1.1" height="2.8"/>
	<rect id="rect3011" x="538.2" y="874.3" fill="#666666" stroke="#4D4D4D" stroke-width="0.3763" width="1.1" height="2.8"/>
	<rect id="rect3013" x="541.9" y="874.4" fill="#666666" stroke="#4D4D4D" stroke-width="0.3763" width="1.1" height="2.8"/>
	<rect id="rect3015" x="546.1" y="874.3" fill="#666666" stroke="#4D4D4D" stroke-width="0.3763" width="1.1" height="2.8"/>
	<rect id="rect3017" x="550" y="874.3" fill="#666666" stroke="#4D4D4D" stroke-width="0.3763" width="1.1" height="2.8"/>
	<rect id="rect3019" x="554" y="874.3" fill="#666666" stroke="#4D4D4D" stroke-width="0.3763" width="1.1" height="2.8"/>
	<rect id="rect3021" x="558.2" y="874.3" fill="#666666" stroke="#4D4D4D" stroke-width="0.3763" width="1.1" height="2.8"/>
	<path id="path4021" fill="#1A1A1A" stroke="#1A1A1A" d="M556.5,865c-0.8,0-1.4-0.3-1.4-0.7c0-0.4,0.6-0.7,1.4-0.7
		c0.8,0,1.4,0.3,1.4,0.7C557.9,864.7,557.3,865,556.5,865z"/>
</g>
<text id="tspan4289_1_" transform="matrix(1 0 0 1 527.6376 872.461)" fill="#E6E6E6" font-family="'OCRA'" font-size="5.0006">PAM8403</text>
<text transform="matrix(0 1 -1 0 520.8429 857.1895)" fill="#E6E6E6" font-family="'OCRA'" font-size="3.0004">rout</text>
<text transform="matrix(0 1 -1 0 517.2426 857.1895)" fill="#E6E6E6" font-family="'OCRA'" font-size="3.0004">-  +</text>
<text transform="matrix(0 1 -1 0 520.8429 871.5255)" fill="#E6E6E6" font-family="'OCRA'" font-size="3.0004">lout</text>
<text transform="matrix(0 1 -1 0 517.2426 871.5255)" fill="#E6E6E6" font-family="'OCRA'" font-size="3.0004">+  -</text>
<text transform="matrix(0 1 -1 0 520.8429 892.085)" fill="#E6E6E6" font-family="'OCRA'" font-size="3.0004">power</text>
<text transform="matrix(0 1 -1 0 517.2426 893.1858)" fill="#E6E6E6" font-family="'OCRA'" font-size="3.0004">-  +</text>
<text transform="matrix(0 1 -1 0 520.8429 917.3918)" fill="#E6E6E6" font-family="'OCRA'" font-size="3.0004">input</text>
<text transform="matrix(0 1 -1 0 517.2426 915.2913)" fill="#E6E6E6" font-family="'OCRA'" font-size="3.0004">l  g  r</text>
<rect id="rect3960_18_" x="592.6" y="915.3" fill="#CCCCCC" stroke="#006400" stroke-width="1.3084" width="17" height="2.3"/>
<rect id="rect3960_19_" x="592.6" y="921" fill="#CCCCCC" stroke="#006400" stroke-width="1.3084" width="17" height="2.3"/>
</svg>
